<svg id="visual" viewBox="0 0 900 600" width="900" height="600" xmlns="http://www.w3.org/2000/svg" xmlns:xlink="http://www.w3.org/1999/xlink" version="1.1"><path d="M0 483L16.7 491.8C33.3 500.7 66.7 518.3 100 514.3C133.3 510.3 166.7 484.7 200 478.2C233.3 471.7 266.7 484.3 300 493.7C333.3 503 366.7 509 400 500.8C433.3 492.7 466.7 470.3 500 474.5C533.3 478.7 566.7 509.3 600 508.2C633.3 507 666.7 474 700 466C733.3 458 766.7 475 800 477.7C833.3 480.3 866.7 468.7 883.3 462.8L900 457L900 601L883.3 601C866.7 601 833.3 601 800 601C766.7 601 733.3 601 700 601C666.7 601 633.3 601 600 601C566.7 601 533.3 601 500 601C466.7 601 433.3 601 400 601C366.7 601 333.3 601 300 601C266.7 601 233.3 601 200 601C166.7 601 133.3 601 100 601C66.7 601 33.3 601 16.7 601L0 601Z" fill="#6600FF" stroke-linecap="round" stroke-linejoin="miter"></path></svg>